<svg width="32" height="32" viewBox="0 0 32 32" fill="none" xmlns="http://www.w3.org/2000/svg">
<rect width="32" height="32" rx="16" fill="white"/>
<path d="M22.0363 15.8016L14.1613 25.1766C14.0779 25.2755 13.9677 25.3416 13.8475 25.3649C13.7272 25.3882 13.6035 25.3674 13.4948 25.3057C13.3861 25.2439 13.2985 25.1446 13.2451 25.0227C13.1917 24.9007 13.1754 24.7628 13.1988 24.6297L14.2295 18.9008L10.1774 17.2102C10.0904 17.174 10.0128 17.1144 9.95154 17.0368C9.89029 16.9592 9.84729 16.8659 9.8264 16.7653C9.80551 16.6647 9.80737 16.5599 9.83181 16.4603C9.85626 16.3607 9.90253 16.2694 9.96649 16.1945L17.8415 6.81953C17.9249 6.72057 18.0351 6.65446 18.1553 6.63117C18.2756 6.60788 18.3994 6.62867 18.508 6.69041C18.6167 6.75214 18.7043 6.85148 18.7577 6.97342C18.8111 7.09536 18.8274 7.2333 18.8041 7.36641L17.7705 13.1016L21.8226 14.7898C21.909 14.8263 21.9859 14.8857 22.0467 14.9631C22.1075 15.0404 22.1502 15.1331 22.1711 15.2332C22.1919 15.3332 22.1903 15.4373 22.1663 15.5365C22.1423 15.6356 22.0967 15.7267 22.0335 15.8016H22.0363Z" fill="black"/>
</svg>
